<svg width="40" height="40" viewBox="0 0 40 40" fill="none" xmlns="http://www.w3.org/2000/svg">
<path d="M20 0C14.5666 0 13.8884 0.025 11.755 0.12C9.625 0.22 8.175 0.554999 6.9 1.05C5.585 1.56 4.46834 2.245 3.35666 3.35666C2.245 4.46833 1.55834 5.58333 1.05 6.89999C0.555 8.17499 0.218334 9.62499 0.12 11.755C0.02 13.8884 0 14.5666 0 20C0 25.4333 0.025 26.1116 0.12 28.245C0.22 30.3733 0.555 31.825 1.05 33.1C1.56 34.4133 2.245 35.5316 3.35666 36.6433C4.46834 37.7533 5.58334 38.4416 6.9 38.95C8.17666 39.4433 9.62666 39.7816 11.755 39.88C13.8884 39.9799 14.5666 40 20 40C25.4334 40 26.1116 39.9749 28.245 39.88C30.3734 39.7799 31.825 39.4433 33.1 38.95C34.4134 38.44 35.5316 37.7533 36.6434 36.6433C37.7534 35.5316 38.4416 34.4183 38.95 33.1C39.4434 31.825 39.7816 30.3733 39.88 28.245C39.98 26.1116 40 25.4333 40 20C40 14.5666 39.975 13.8884 39.88 11.755C39.78 9.62665 39.4434 8.17333 38.95 6.89999C38.44 5.58499 37.7534 4.46833 36.6434 3.35666C35.5316 2.245 34.4184 1.55834 33.1 1.05C31.825 0.554999 30.3734 0.218333 28.245 0.12C26.1116 0.02 25.4334 0 20 0ZM20 3.6C25.3384 3.6 25.975 3.62666 28.0834 3.71833C30.0334 3.81 31.0916 4.13333 31.795 4.40999C32.7316 4.77166 33.395 5.20499 34.0984 5.90333C34.7966 6.60333 35.23 7.26833 35.5916 8.20499C35.865 8.90833 36.1916 9.96665 36.28 11.9166C36.375 14.0266 36.3966 14.66 36.3966 20C36.3966 25.34 36.3716 25.975 36.2734 28.0833C36.1716 30.0333 35.8466 31.0916 35.5716 31.795C35.1984 32.7316 34.7734 33.395 34.0734 34.0983C33.375 34.7966 32.7 35.23 31.7734 35.5916C31.0734 35.865 29.9984 36.1916 28.0484 36.28C25.925 36.375 25.3 36.3966 19.95 36.3966C14.5984 36.3966 13.9734 36.3716 11.8517 36.2733C9.9 36.1716 8.825 35.8466 8.125 35.5716C7.17666 35.1983 6.525 34.7733 5.82666 34.0733C5.125 33.375 4.67666 32.7 4.32666 31.7733C4.05166 31.0733 3.72834 29.9983 3.62666 28.0483C3.55166 25.9483 3.525 25.3 3.525 19.975C3.525 14.6484 3.55166 13.9984 3.62666 11.8733C3.72834 9.92332 4.05166 8.84999 4.32666 8.14999C4.67666 7.19999 5.125 6.54999 5.82666 5.84833C6.525 5.14999 7.17666 4.69999 8.125 4.35166C8.825 4.075 9.87666 3.75 11.8267 3.65C13.9516 3.575 14.5766 3.55 19.925 3.55L20 3.6ZM20 9.72999C14.325 9.72999 9.73 14.33 9.73 20C9.73 25.675 14.33 30.27 20 30.27C25.675 30.27 30.27 25.67 30.27 20C30.27 14.325 25.67 9.72999 20 9.72999ZM20 26.6666C16.3166 26.6666 13.3334 23.6833 13.3334 20C13.3334 16.3166 16.3166 13.3334 20 13.3334C23.6834 13.3334 26.6666 16.3166 26.6666 20C26.6666 23.6833 23.6834 26.6666 20 26.6666ZM33.0766 9.32499C33.0766 10.65 32 11.725 30.6766 11.725C29.3516 11.725 28.2766 10.6483 28.2766 9.32499C28.2766 8.00165 29.3534 6.92665 30.6766 6.92665C31.9984 6.92499 33.0766 8.00165 33.0766 9.32499Z" fill="#050011"/>
</svg>
