<svg width="40" height="40" viewBox="0 0 40 40" fill="none" xmlns="http://www.w3.org/2000/svg">
<path d="M8.8335 11.3333C10.2142 11.3333 11.3335 10.214 11.3335 8.83333C11.3335 7.45261 10.2142 6.33333 8.8335 6.33333C7.45278 6.33333 6.3335 7.45261 6.3335 8.83333C6.3335 10.214 7.45278 11.3333 8.8335 11.3333Z" fill="#050011"/>
<path d="M6.3335 14.6666C6.3335 13.7462 7.0797 13 8.00016 13H9.66683C10.5873 13 11.3335 13.7462 11.3335 14.6666V28C11.3335 28.9205 10.5873 29.6666 9.66683 29.6666H8.00016C7.0797 29.6666 6.3335 28.9205 6.3335 28V14.6666Z" fill="#050011"/>
<path d="M16.3332 29.6666H17.9998C18.9203 29.6666 19.6665 28.9205 19.6665 28V20.5C19.6665 18 24.6665 16.3333 24.6665 19.6666V28.0006C24.6665 28.9211 25.4127 29.6666 26.3332 29.6666H27.9998C28.9203 29.6666 29.6665 28.9205 29.6665 28V18C29.6665 14.6666 27.1665 13 23.8332 13C20.4998 13 19.6665 15.5 19.6665 15.5V14.6666C19.6665 13.7462 18.9203 13 17.9998 13H16.3332C15.4127 13 14.6665 13.7462 14.6665 14.6666V28C14.6665 28.9205 15.4127 29.6666 16.3332 29.6666Z" fill="#050011"/>
<path fill-rule="evenodd" clip-rule="evenodd" d="M34.5455 0C37.558 0 40 2.44209 40 5.45454V34.5454C40 37.558 37.558 40 34.5455 40H5.45455C2.44209 40 0 37.558 0 34.5454V5.45454C0 2.44209 2.44209 0 5.45455 0H34.5455ZM34.5455 3.63636C35.5496 3.63636 36.3636 4.45039 36.3636 5.45454V34.5454C36.3636 35.5496 35.5496 36.3636 34.5455 36.3636H5.45455C4.4504 36.3636 3.63636 35.5496 3.63636 34.5454V5.45454C3.63636 4.45039 4.4504 3.63636 5.45455 3.63636H34.5455Z" fill="#050011"/>
</svg>
